<svg width="189" height="188" viewBox="0 0 189 188" fill="none" xmlns="http://www.w3.org/2000/svg">
<g id="Vector">
<path d="M67.9786 0H60.4586V7.52H67.9786V0Z" fill="black"/>
<path d="M75.4986 0H67.9786V7.52H75.4986V0Z" fill="black"/>
<path d="M90.5386 0H83.0186V7.52H90.5386V0Z" fill="black"/>
<path d="M105.579 0H98.0586V7.52H105.579V0Z" fill="black"/>
<path d="M67.9786 7.52H60.4586L60.4586 15.0398H67.9786L67.9786 7.52Z" fill="black"/>
<path d="M105.579 7.52H98.0586V15.0398H105.579V7.52Z" fill="black"/>
<path d="M128.139 7.51978H120.619V15.0398H128.139V7.51978Z" fill="black"/>
<path d="M67.9786 15.0398H60.4586L60.4586 22.5598H67.9786L67.9786 15.0398Z" fill="black"/>
<path d="M83.0186 15.0398H75.4986V22.5598H83.0186V15.0398Z" fill="black"/>
<path d="M90.5386 15.0398H83.0186V22.5598H90.5386V15.0398Z" fill="black"/>
<path d="M105.579 15.0398H98.0586V22.5598H105.579V15.0398Z" fill="black"/>
<path d="M120.619 15.0398L113.099 15.0398V22.5598H120.619L120.619 15.0398Z" fill="black"/>
<path d="M128.139 15.0398H120.619L120.619 22.5598H128.139L128.139 15.0398Z" fill="black"/>
<path d="M83.0186 22.5598H75.4986V30.0801H83.0186V22.5598Z" fill="black"/>
<path d="M90.5386 22.5598H83.0186V30.0801H90.5386V22.5598Z" fill="black"/>
<path d="M98.0586 22.5598H90.5386V30.0801H98.0586L98.0586 22.5598Z" fill="black"/>
<path d="M105.579 22.5598H98.0586L98.0586 30.0801H105.579V22.5598Z" fill="black"/>
<path d="M120.619 22.5598H113.099V30.0801H120.619V22.5598Z" fill="black"/>
<path d="M128.139 22.5598H120.619V30.0801H128.139V22.5598Z" fill="black"/>
<path d="M67.9786 30.0801H60.4586V37.6001H67.9786V30.0801Z" fill="black"/>
<path d="M75.4986 30.0801L67.9786 30.0801V37.6001H75.4986L75.4986 30.0801Z" fill="black"/>
<path d="M83.0186 30.0801H75.4986L75.4986 37.6001H83.0186V30.0801Z" fill="black"/>
<path d="M98.0586 30.0801H90.5386L90.5388 37.6001H98.0588L98.0586 30.0801Z" fill="black"/>
<path d="M128.139 30.0801H120.619L120.619 37.6001H128.139V30.0801Z" fill="black"/>
<path d="M83.0186 37.6001H75.4986L75.4986 45.1201H83.0186V37.6001Z" fill="black"/>
<path d="M98.0588 37.6001H90.5388L90.5386 45.1201H98.0586L98.0588 37.6001Z" fill="black"/>
<path d="M113.099 37.6001H105.579V45.1201H113.099V37.6001Z" fill="black"/>
<path d="M128.139 37.6001H120.619L120.619 45.1201H128.139L128.139 37.6001Z" fill="black"/>
<path d="M67.9786 45.1201H60.4586V52.6401H67.9786V45.1201Z" fill="black"/>
<path d="M83.0186 45.1201H75.4986V52.6396H83.0186V45.1201Z" fill="black"/>
<path d="M98.0586 45.1201H90.5386L90.5388 52.6396H98.0588L98.0586 45.1201Z" fill="black"/>
<path d="M113.099 45.1201H105.579V52.6396H113.099V45.1201Z" fill="black"/>
<path d="M128.139 45.1201H120.619L120.619 52.6396H128.139L128.139 45.1201Z" fill="black"/>
<path d="M90.5388 52.6396H83.0186L83.0186 60.1599H90.5386L90.5388 52.6396Z" fill="black"/>
<path d="M98.0588 52.6396H90.5388L90.5386 60.1599H98.0586L98.0588 52.6396Z" fill="black"/>
<path d="M105.579 52.6396H98.0588L98.0586 60.1599H105.579L105.579 52.6396Z" fill="black"/>
<path d="M128.139 52.6396H120.619L120.619 60.1599H128.139L128.139 52.6396Z" fill="black"/>
<path d="M7.81858 60.1603H0.298584V67.6803H7.81858V60.1603Z" fill="black"/>
<path d="M30.3785 60.1602H22.8585V67.6802H30.3785V60.1602Z" fill="black"/>
<path d="M37.8986 60.1602H30.3785V67.6802H37.8986V60.1602Z" fill="black"/>
<path d="M45.4186 60.1602H37.8986V67.6802H45.4186V60.1602Z" fill="black"/>
<path d="M52.9386 60.1602H45.4186V67.6802H52.9386V60.1602Z" fill="black"/>
<path d="M60.4586 60.1602H52.9386V67.6802H60.4586V60.1602Z" fill="black"/>
<path d="M67.9786 60.1602H60.4586V67.6802H67.9786V60.1602Z" fill="black"/>
<path d="M75.4986 60.1602H67.9786V67.6802H75.4986V60.1602Z" fill="black"/>
<path d="M83.0186 60.1599L75.4986 60.1602V67.6802H83.0186L83.0186 60.1599Z" fill="black"/>
<path d="M90.5386 60.1599H83.0186L83.0186 67.6802H90.5385L90.5386 60.1599Z" fill="black"/>
<path d="M98.0586 60.1599H90.5386L90.5385 67.6802H98.0585L98.0586 60.1599Z" fill="black"/>
<path d="M113.099 60.1602L105.579 60.1599L105.579 67.6802H113.099V60.1602Z" fill="black"/>
<path d="M120.619 60.1599L113.099 60.1602V67.6802H120.619L120.619 60.1599Z" fill="black"/>
<path d="M135.659 60.1602L128.139 60.1599L128.139 67.6802H135.659V60.1602Z" fill="black"/>
<path d="M158.219 60.1602H150.699V67.6802H158.219V60.1602Z" fill="black"/>
<path d="M173.259 60.1602H165.739V67.6802H173.259V60.1602Z" fill="black"/>
<path d="M180.779 60.1602H173.259V67.6802H180.779V60.1602Z" fill="black"/>
<path d="M188.299 60.1602H180.779V67.6802H188.299V60.1602Z" fill="black"/>
<path d="M7.81858 67.6803H0.298584V75.1996H7.81858V67.6803Z" fill="black"/>
<path d="M22.8585 67.6802L15.3385 67.6797V75.1997H22.8585L22.8585 67.6802Z" fill="black"/>
<path d="M30.3785 67.6802H22.8585L22.8585 75.1997H30.3787L30.3785 67.6802Z" fill="black"/>
<path d="M37.8986 67.6802H30.3785L30.3787 75.1997H37.8986V67.6802Z" fill="black"/>
<path d="M45.4186 67.6802H37.8986V75.1997H45.4186V67.6802Z" fill="black"/>
<path d="M60.4586 67.6802H52.9386L52.9386 75.1997H60.4586V67.6802Z" fill="black"/>
<path d="M75.4986 67.6802H67.9786L67.9786 75.1997H75.4986V67.6802Z" fill="black"/>
<path d="M90.5385 67.6802H83.0186L83.0185 75.1997H90.5385V67.6802Z" fill="black"/>
<path d="M120.619 67.6802H113.099L113.099 75.1997H120.619V67.6802Z" fill="black"/>
<path d="M158.219 67.6802H150.699V75.1997H158.219V67.6802Z" fill="black"/>
<path d="M165.739 67.6802H158.219V75.1997H165.739L165.739 67.6802Z" fill="black"/>
<path d="M173.259 67.6802H165.739L165.739 75.1997H173.259V67.6802Z" fill="black"/>
<path d="M180.779 67.6802H173.259V75.1997H180.779V67.6802Z" fill="black"/>
<path d="M22.8585 75.1997H15.3385L15.3386 82.7199H22.8586L22.8585 75.1997Z" fill="black"/>
<path d="M45.4186 75.1997H37.8986L37.8986 82.7199H45.4186L45.4186 75.1997Z" fill="black"/>
<path d="M52.9386 75.1997H45.4186L45.4186 82.7199H52.9385L52.9386 75.1997Z" fill="black"/>
<path d="M60.4586 75.1997H52.9386L52.9385 82.7199H60.4586V75.1997Z" fill="black"/>
<path d="M75.4986 75.1997H67.9786L67.9786 82.7199H75.4986L75.4986 75.1997Z" fill="black"/>
<path d="M83.0185 75.1997H75.4986L75.4986 82.7199H83.0186L83.0185 75.1997Z" fill="black"/>
<path d="M113.099 75.1997L105.579 75.2V82.7199H113.099L113.099 75.1997Z" fill="black"/>
<path d="M120.619 75.1997H113.099L113.099 82.7199H120.619L120.619 75.1997Z" fill="black"/>
<path d="M128.139 75.2L120.619 75.1997L120.619 82.7199H128.139V75.2Z" fill="black"/>
<path d="M158.219 75.1997H150.699V82.7199H158.219V75.1997Z" fill="black"/>
<path d="M165.739 75.1997H158.219V82.7199H165.739L165.739 75.1997Z" fill="black"/>
<path d="M188.299 75.2L180.779 75.1997L180.779 82.7199H188.299V75.2Z" fill="black"/>
<path d="M22.8586 82.7199H15.3386V90.2397H22.8586V82.7199Z" fill="black"/>
<path d="M30.3787 82.7202L22.8586 82.7199V90.2397L30.3787 90.2402V82.7202Z" fill="black"/>
<path d="M37.8986 82.7199L30.3787 82.7202V90.2402H37.8986L37.8986 82.7199Z" fill="black"/>
<path d="M45.4186 82.7199H37.8986L37.8986 90.2402L45.4187 90.2397L45.4186 82.7199Z" fill="black"/>
<path d="M67.9786 82.7199H60.4586L60.4586 90.2397H67.9786L67.9786 82.7199Z" fill="black"/>
<path d="M75.4986 82.7199H67.9786L67.9786 90.2397H75.4985L75.4986 82.7199Z" fill="black"/>
<path d="M90.5386 82.7197L83.0186 82.7199L83.0186 90.2397H90.5386V82.7197Z" fill="black"/>
<path d="M98.0588 82.7197H90.5386V90.2397H98.0588V82.7197Z" fill="black"/>
<path d="M135.659 82.7197L128.139 82.7199L128.139 90.2397H135.659V82.7197Z" fill="black"/>
<path d="M150.699 82.7199L143.179 82.7197V90.2397H150.699L150.699 82.7199Z" fill="black"/>
<path d="M165.739 82.7199H158.219L158.219 90.2397H165.739L165.739 82.7199Z" fill="black"/>
<path d="M173.259 82.7197L165.739 82.7199L165.739 90.2397H173.259V82.7197Z" fill="black"/>
<path d="M180.779 82.7199L173.259 82.7197V90.2397H180.778L180.779 82.7199Z" fill="black"/>
<path d="M188.299 82.7199H180.779L180.778 90.2397H188.299L188.299 82.7199Z" fill="black"/>
<path d="M7.81858 90.2397H0.298584V97.7597H7.81858V90.2397Z" fill="black"/>
<path d="M22.8586 90.2397H15.3386L15.3386 97.7597H22.8586L22.8586 90.2397Z" fill="black"/>
<path d="M30.3787 90.2402L22.8586 90.2397L22.8586 97.7597H30.3787V90.2402Z" fill="black"/>
<path d="M37.8986 90.2402H30.3787V97.7597H37.8986V90.2402Z" fill="black"/>
<path d="M45.4187 90.2397L37.8986 90.2402V97.7597H45.4186L45.4187 90.2397Z" fill="black"/>
<path d="M52.9385 90.2397L45.4187 90.2397L45.4186 97.7597H52.9385V90.2397Z" fill="black"/>
<path d="M60.4586 90.2397L52.9385 90.2397V97.7597H60.4586L60.4586 90.2397Z" fill="black"/>
<path d="M67.9786 90.2397H60.4586L60.4586 97.7597H67.9786L67.9786 90.2397Z" fill="black"/>
<path d="M75.4985 90.2397H67.9786L67.9786 97.7597H75.4986L75.4985 90.2397Z" fill="black"/>
<path d="M98.0588 90.2397H90.5386L90.5386 97.7597H98.0586L98.0588 90.2397Z" fill="black"/>
<path d="M105.579 90.2397L98.0588 90.2397L98.0586 97.7597H105.579V90.2397Z" fill="black"/>
<path d="M120.619 90.2397H113.099V97.7597H120.619V90.2397Z" fill="black"/>
<path d="M128.139 90.2397L120.619 90.2397V97.7597H128.139L128.139 90.2397Z" fill="black"/>
<path d="M143.179 90.2397H135.659L135.659 97.7597H143.179L143.179 90.2397Z" fill="black"/>
<path d="M188.299 90.2397H180.778L180.779 97.7597H188.299L188.299 90.2397Z" fill="black"/>
<path d="M7.81858 97.7597H0.298584V105.28H7.81858V97.7597Z" fill="black"/>
<path d="M15.3386 97.7597L7.81858 97.7597V105.28L15.3385 105.28L15.3386 97.7597Z" fill="black"/>
<path d="M22.8586 97.7597H15.3386L15.3385 105.28H22.8586L22.8586 97.7597Z" fill="black"/>
<path d="M60.4586 97.7597H52.9385L52.9386 105.28H60.4586V97.7597Z" fill="black"/>
<path d="M67.9786 97.7597H60.4586V105.28H67.9786V97.7597Z" fill="black"/>
<path d="M120.619 97.7597H113.099L113.099 105.28H120.619L120.619 97.7597Z" fill="black"/>
<path d="M128.139 97.7597H120.619L120.619 105.28H128.139L128.139 97.7597Z" fill="black"/>
<path d="M158.219 97.76H150.699V105.28H158.219V97.76Z" fill="black"/>
<path d="M180.779 97.7597L173.259 97.76V105.28H180.779L180.779 97.7597Z" fill="black"/>
<path d="M7.81858 105.28H0.298584V112.8H7.81858V105.28Z" fill="black"/>
<path d="M15.3385 105.28L7.81858 105.28V112.8L15.3386 112.8L15.3385 105.28Z" fill="black"/>
<path d="M22.8586 105.28H15.3385L15.3386 112.8H22.8586L22.8586 105.28Z" fill="black"/>
<path d="M30.3786 105.28L22.8586 105.28L22.8586 112.8L30.3786 112.8V105.28Z" fill="black"/>
<path d="M52.9386 105.28L45.4185 105.28V112.8H52.9385L52.9386 105.28Z" fill="black"/>
<path d="M60.4586 105.28H52.9386L52.9385 112.8L60.4588 112.8L60.4586 105.28Z" fill="black"/>
<path d="M67.9786 105.28H60.4586L60.4588 112.8H67.9786L67.9786 105.28Z" fill="black"/>
<path d="M75.4985 105.28L67.9786 105.28L67.9786 112.8H75.4985V105.28Z" fill="black"/>
<path d="M83.0186 105.28H75.4985V112.8H83.0186V105.28Z" fill="black"/>
<path d="M90.5385 105.28H83.0186V112.8H90.5385V105.28Z" fill="black"/>
<path d="M98.0588 105.28H90.5385V112.8H98.0588V105.28Z" fill="black"/>
<path d="M113.099 105.28L105.579 105.28V112.8H113.099L113.099 105.28Z" fill="black"/>
<path d="M120.619 105.28H113.099L113.099 112.8H120.619L120.619 105.28Z" fill="black"/>
<path d="M135.659 105.28L128.139 105.28L128.139 112.8H135.659V105.28Z" fill="black"/>
<path d="M158.219 105.28H150.699L150.699 112.8H158.219L158.219 105.28Z" fill="black"/>
<path d="M165.739 105.28L158.219 105.28L158.219 112.8H165.739V105.28Z" fill="black"/>
<path d="M173.259 105.28L165.739 105.28V112.8H173.259L173.259 105.28Z" fill="black"/>
<path d="M180.779 105.28H173.259L173.259 112.8H180.778L180.779 105.28Z" fill="black"/>
<path d="M188.299 105.28L180.779 105.28L180.778 112.8H188.299V105.28Z" fill="black"/>
<path d="M7.81858 112.8H0.298584V120.32H7.81858V112.8Z" fill="black"/>
<path d="M22.8586 112.8H15.3386L15.3386 120.32H22.8586L22.8586 112.8Z" fill="black"/>
<path d="M37.8986 112.8L30.3786 112.8L30.3786 120.32H37.8986V112.8Z" fill="black"/>
<path d="M45.4185 112.8L37.8986 112.8V120.32H45.4186L45.4185 112.8Z" fill="black"/>
<path d="M67.9786 112.8H60.4588L60.4586 120.32H67.9786L67.9786 112.8Z" fill="black"/>
<path d="M75.4985 112.8H67.9786L67.9786 120.32H75.4986L75.4985 112.8Z" fill="black"/>
<path d="M90.5385 112.8H83.0186L83.0186 120.32H90.5386L90.5385 112.8Z" fill="black"/>
<path d="M120.619 112.8H113.099L113.099 120.32H120.619L120.619 112.8Z" fill="black"/>
<path d="M128.139 112.8H120.619L120.619 120.32H128.139L128.139 112.8Z" fill="black"/>
<path d="M135.659 112.8H128.139L128.139 120.32H135.659L135.659 112.8Z" fill="black"/>
<path d="M143.179 112.8L135.659 112.8L135.659 120.32H143.179V112.8Z" fill="black"/>
<path d="M150.699 112.8L143.179 112.8V120.32H150.699L150.699 112.8Z" fill="black"/>
<path d="M165.739 112.8H158.219L158.219 120.32H165.739L165.739 112.8Z" fill="black"/>
<path d="M173.259 112.8H165.739L165.739 120.32H173.259V112.8Z" fill="black"/>
<path d="M188.299 112.8H180.778L180.779 120.32H188.299L188.299 112.8Z" fill="black"/>
<path d="M7.81858 120.32H0.298584V127.84H7.81858V120.32Z" fill="black"/>
<path d="M52.9386 120.32L45.4186 120.32L45.4186 127.84H52.9386V120.32Z" fill="black"/>
<path d="M75.4986 120.32H67.9786L67.9785 127.84H75.4985L75.4986 120.32Z" fill="black"/>
<path d="M83.0186 120.32H75.4986L75.4985 127.84H83.0186L83.0186 120.32Z" fill="black"/>
<path d="M105.578 120.32H98.0584V127.84H105.578V120.32Z" fill="black"/>
<path d="M120.619 120.32H113.099V127.84H120.619V120.32Z" fill="black"/>
<path d="M128.139 120.32H120.619V127.84H128.139L128.139 120.32Z" fill="black"/>
<path d="M135.659 120.32H128.139L128.139 127.84H135.659L135.659 120.32Z" fill="black"/>
<path d="M143.179 120.32H135.659L135.659 127.84H143.178L143.179 120.32Z" fill="black"/>
<path d="M150.699 120.32H143.179L143.178 127.84H150.699L150.699 120.32Z" fill="black"/>
<path d="M158.219 120.32H150.699L150.699 127.84H158.219L158.219 120.32Z" fill="black"/>
<path d="M173.259 120.32H165.739L165.739 127.84H173.259L173.259 120.32Z" fill="black"/>
<path d="M180.779 120.32H173.259L173.259 127.84H180.778L180.779 120.32Z" fill="black"/>
<path d="M67.9785 127.84L60.4586 127.84V135.36H67.9786L67.9785 127.84Z" fill="black"/>
<path d="M83.0186 127.84H75.4985L75.4986 135.36H83.0186V127.84Z" fill="black"/>
<path d="M90.5386 127.84L83.0186 127.84V135.36H90.5386V127.84Z" fill="black"/>
<path d="M98.0584 127.84L90.5386 127.84V135.36H98.0585L98.0584 127.84Z" fill="black"/>
<path d="M105.578 127.84H98.0584L98.0585 135.36H105.579L105.578 127.84Z" fill="black"/>
<path d="M120.619 127.84H113.099V135.36H120.619V127.84Z" fill="black"/>
<path d="M128.139 127.84H120.619V135.36H128.139L128.139 127.84Z" fill="black"/>
<path d="M158.219 127.84H150.699L150.699 135.36H158.219V127.84Z" fill="black"/>
<path d="M173.259 127.84H165.739L165.739 135.36H173.259L173.259 127.84Z" fill="black"/>
<path d="M180.778 127.84H173.259L173.259 135.36H180.779L180.778 127.84Z" fill="black"/>
<path d="M67.9786 135.36H60.4586V142.88H67.9786V135.36Z" fill="black"/>
<path d="M75.4986 135.36H67.9786V142.88H75.4986L75.4986 135.36Z" fill="black"/>
<path d="M90.5386 135.36H83.0186L83.0186 142.88H90.5386V135.36Z" fill="black"/>
<path d="M105.579 135.36H98.0585L98.0586 142.88H105.579L105.579 135.36Z" fill="black"/>
<path d="M113.099 135.36H105.579L105.579 142.88H113.099L113.099 135.36Z" fill="black"/>
<path d="M128.139 135.36H120.619L120.619 142.88H128.139V135.36Z" fill="black"/>
<path d="M143.179 135.36H135.659V142.88H143.179V135.36Z" fill="black"/>
<path d="M158.219 135.36H150.699V142.88H158.219V135.36Z" fill="black"/>
<path d="M188.299 135.36L180.779 135.36L180.779 142.88H188.299V135.36Z" fill="black"/>
<path d="M67.9786 142.88H60.4586V150.4H67.9786V142.88Z" fill="black"/>
<path d="M75.4986 142.88H67.9786V150.4L75.4985 150.4L75.4986 142.88Z" fill="black"/>
<path d="M83.0186 142.88H75.4986L75.4985 150.4H83.0186L83.0186 142.88Z" fill="black"/>
<path d="M98.0586 142.88H90.5386L90.5388 150.4H98.0588L98.0586 142.88Z" fill="black"/>
<path d="M105.579 142.88H98.0586L98.0588 150.4H105.578L105.579 142.88Z" fill="black"/>
<path d="M120.619 142.88H113.099L113.099 150.4H120.619L120.619 142.88Z" fill="black"/>
<path d="M128.139 142.88H120.619L120.619 150.4H128.139L128.139 142.88Z" fill="black"/>
<path d="M158.219 142.88H150.699V150.4H158.219V142.88Z" fill="black"/>
<path d="M180.779 142.88L173.258 142.88V150.4H180.778L180.779 142.88Z" fill="black"/>
<path d="M67.9786 150.4H60.4586L60.4587 157.92H67.9787L67.9786 150.4Z" fill="black"/>
<path d="M98.0588 150.4H90.5388L90.5386 157.92H98.0586L98.0588 150.4Z" fill="black"/>
<path d="M113.099 150.4H105.578L105.579 157.92H113.099L113.099 150.4Z" fill="black"/>
<path d="M120.619 150.4H113.099L113.099 157.92H120.618L120.619 150.4Z" fill="black"/>
<path d="M128.139 150.4H120.619L120.618 157.92H128.139L128.139 150.4Z" fill="black"/>
<path d="M135.659 150.4L128.139 150.4L128.139 157.92H135.659V150.4Z" fill="black"/>
<path d="M143.179 150.4H135.659V157.92H143.179V150.4Z" fill="black"/>
<path d="M150.699 150.4L143.179 150.4V157.92H150.699L150.699 150.4Z" fill="black"/>
<path d="M158.219 150.4H150.699L150.699 157.92H158.219V150.4Z" fill="black"/>
<path d="M180.778 150.4H173.258L173.259 157.92H180.779L180.778 150.4Z" fill="black"/>
<path d="M188.299 150.4L180.778 150.4L180.779 157.92H188.299V150.4Z" fill="black"/>
<path d="M67.9787 157.92H60.4587L60.4586 165.44H67.9786L67.9787 157.92Z" fill="black"/>
<path d="M83.0186 157.92H75.4986V165.44H83.0186V157.92Z" fill="black"/>
<path d="M105.579 157.92H98.0586L98.0584 165.44H105.578L105.579 157.92Z" fill="black"/>
<path d="M113.099 157.92H105.579L105.578 165.44H113.099L113.099 157.92Z" fill="black"/>
<path d="M120.618 157.92H113.099L113.099 165.44H120.619L120.618 157.92Z" fill="black"/>
<path d="M135.659 157.92H128.139L128.139 165.44H135.659L135.659 157.92Z" fill="black"/>
<path d="M143.179 157.92H135.659L135.659 165.44H143.178L143.179 157.92Z" fill="black"/>
<path d="M180.779 157.92H173.259L173.258 165.44H180.778L180.779 157.92Z" fill="black"/>
<path d="M188.299 157.92H180.779L180.778 165.44H188.299L188.299 157.92Z" fill="black"/>
<path d="M98.0584 165.44L90.5386 165.44V172.96H98.0586L98.0584 165.44Z" fill="black"/>
<path d="M105.578 165.44H98.0584L98.0586 172.96H105.579L105.578 165.44Z" fill="black"/>
<path d="M128.139 165.44H120.619L120.619 172.96H128.139L128.139 165.44Z" fill="black"/>
<path d="M135.659 165.44H128.139L128.139 172.96H135.659L135.659 165.44Z" fill="black"/>
<path d="M158.219 165.44H150.699V172.96H158.219V165.44Z" fill="black"/>
<path d="M165.739 165.44H158.219V172.96H165.739V165.44Z" fill="black"/>
<path d="M173.258 165.44L165.739 165.44V172.96H173.259L173.258 165.44Z" fill="black"/>
<path d="M180.778 165.44H173.258L173.259 172.96H180.779L180.778 165.44Z" fill="black"/>
<path d="M188.299 165.44H180.778L180.779 172.96H188.299L188.299 165.44Z" fill="black"/>
<path d="M75.4986 172.96H67.9786V180.48H75.4986V172.96Z" fill="black"/>
<path d="M83.0186 172.96H75.4986V180.48H83.0186V172.96Z" fill="black"/>
<path d="M113.099 172.96L105.579 172.96L105.579 180.48H113.099V172.96Z" fill="black"/>
<path d="M143.179 172.96L135.659 172.96L135.659 180.48H143.179V172.96Z" fill="black"/>
<path d="M150.699 172.96L143.179 172.96V180.48H150.699L150.699 172.96Z" fill="black"/>
<path d="M158.219 172.96H150.699L150.699 180.48H158.219V172.96Z" fill="black"/>
<path d="M173.259 172.96H165.739L165.739 180.48H173.259V172.96Z" fill="black"/>
<path d="M180.779 172.96H173.259V180.48H180.779V172.96Z" fill="black"/>
<path d="M188.299 172.96H180.779V180.48H188.299V172.96Z" fill="black"/>
<path d="M67.9786 180.48L60.4586 180.48V188H67.9786L67.9786 180.48Z" fill="black"/>
<path d="M75.4986 180.48H67.9786L67.9786 188H75.4985L75.4986 180.48Z" fill="black"/>
<path d="M98.0588 180.48H90.5388V188H98.0588V180.48Z" fill="black"/>
<path d="M105.579 180.48L98.0588 180.48V188H105.578L105.579 180.48Z" fill="black"/>
<path d="M113.099 180.48H105.579L105.578 188H113.099L113.099 180.48Z" fill="black"/>
<path d="M120.619 180.48L113.099 180.48L113.099 188H120.619V180.48Z" fill="black"/>
<path d="M128.139 180.48H120.619V188H128.139V180.48Z" fill="black"/>
<path d="M143.179 180.48H135.659L135.658 188H143.178L143.179 180.48Z" fill="black"/>
<path d="M165.739 180.48H158.219L158.219 188H165.739L165.739 180.48Z" fill="black"/>
<path d="M188.299 180.48H180.779L180.779 188H188.299L188.299 180.48Z" fill="black"/>
<path d="M0.298584 4.18527e-05V52.64H52.9386V4.18527e-05H0.298584ZM45.0426 44.7443H8.19458V7.89628H45.0426V44.7443Z" fill="black"/>
<path d="M135.659 0V52.64H188.299V0H135.659ZM180.403 44.7442H143.555V7.89624H180.403V44.7442Z" fill="black"/>
<path d="M0.298584 135.36V188H52.9386V135.36H0.298584ZM45.0426 180.104H8.19458V143.256H45.0426V180.104Z" fill="black"/>
<path d="M37.8986 15.0398H15.3386V37.5998H37.8986V15.0398Z" fill="black"/>
<path d="M173.259 15.0398H150.699V37.5998H173.259V15.0398Z" fill="black"/>
<path d="M37.8986 150.4H15.3386V172.96H37.8986V150.4Z" fill="black"/>
</g>
</svg>
